<?xml version="1.0" standalone="no"?>
<!DOCTYPE svg PUBLIC "-//W3C//DTD SVG 20010904//EN"
 "http://www.w3.org/TR/2001/REC-SVG-20010904/DTD/svg10.dtd">
<svg version="1.0" xmlns="http://www.w3.org/2000/svg"
 width="633.000000pt" height="641.000000pt" viewBox="0 0 633.000000 641.000000"
 preserveAspectRatio="xMidYMid meet">
<metadata>
Created by potrace 1.16, written by Peter Selinger 2001-2019
</metadata>
<g transform="translate(0.000000,641.000000) scale(0.100000,-0.100000)"
fill="#000000" stroke="none">
<path d="M17 4383 c-4 -1110 -7 -2545 -7 -3189 l0 -1171 1973 -6 c1084 -4
2501 -7 3148 -7 l1176 0 7 3186 c4 1752 6 3187 4 3189 -2 1 -1419 5 -3149 9
l-3146 7 -6 -2018z m2775 640 c1225 -2326 1578 -2999 1578 -3011 0 -10 -74
-12 -369 -10 l-369 3 -28 25 c-15 14 -80 135 -154 285 -70 143 -173 353 -228
466 -56 113 -239 485 -407 825 -168 340 -345 699 -392 797 -47 97 -92 177 -99
177 -8 0 -284 -544 -629 -1237 -338 -680 -627 -1251 -641 -1270 -14 -18 -37
-39 -52 -47 -30 -15 -246 -22 -566 -18 -165 2 -178 3 -172 20 4 9 83 159 175
332 256 479 1846 3460 1865 3498 9 17 20 32 24 32 4 0 213 -390 464 -867z
m1806 673 c174 -247 192 -280 192 -339 0 -43 -19 -87 -146 -351 -81 -165 -189
-386 -241 -489 -51 -103 -91 -192 -88 -197 3 -5 40 -16 83 -26 454 -98 805
-265 1107 -527 311 -269 517 -626 587 -1016 28 -160 28 -400 -1 -562 -128
-726 -742 -1333 -1537 -1523 -267 -63 -150 -60 -2059 -64 -957 -2 -1872 0
-2033 3 l-292 7 2 337 3 336 2015 6 c1828 5 2022 7 2095 22 314 65 570 195
774 391 384 372 444 905 149 1333 -67 98 -236 269 -350 354 -235 175 -480 248
-734 220 -87 -10 -109 -10 -119 1 -14 15 -265 487 -331 622 -70 142 -69 148
73 402 238 428 676 1190 696 1212 11 12 23 22 27 22 3 0 61 -78 128 -174z"/>
</g>
</svg>
